<svg id="svg" version="1.1" xmlns="http://www.w3.org/2000/svg" xmlns:xlink="http://www.w3.org/1999/xlink" width="400" height="400" viewBox="0, 0, 400,400"><g id="svgg"><path id="path0" d="M195.400 74.039 C 194.740 74.271,191.140 74.589,187.400 74.746 C 172.498 75.373,171.260 77.973,171.772 107.594 C 172.062 124.412,171.968 123.900,175.026 125.253 C 177.876 126.513,222.061 126.234,224.866 124.938 C 227.762 123.599,227.699 123.961,227.890 107.615 C 228.176 83.139,227.271 79.423,220.193 75.997 C 217.237 74.565,198.185 73.061,195.400 74.039 M172.800 127.883 C 169.484 128.347,167.968 128.379,165.600 128.033 C 155.102 126.500,152.390 127.752,151.569 134.511 C 150.767 141.119,151.274 223.169,152.127 224.732 C 153.494 227.237,153.288 227.217,177.504 227.184 C 189.547 227.167,209.750 227.165,222.400 227.180 C 249.875 227.211,249.691 227.238,250.781 222.909 C 251.433 220.320,251.435 136.292,250.784 133.278 C 249.854 128.982,248.161 128.453,235.200 128.411 C 232.230 128.401,227.647 128.125,225.015 127.797 C 218.252 126.953,178.977 127.018,172.800 127.883 M110.400 129.185 C 103.703 129.884,104.006 127.542,104.005 178.600 C 104.004 223.089,103.932 221.687,106.365 224.009 C 108.979 226.502,109.389 226.557,126.000 226.656 C 134.250 226.704,142.242 226.839,143.760 226.954 C 147.171 227.213,147.646 226.966,148.844 224.316 L 149.800 222.200 149.912 179.600 C 150.052 126.815,150.391 129.677,143.929 129.140 C 139.707 128.789,113.858 128.824,110.400 129.185 M255.577 129.776 C 254.465 130.394,253.900 131.401,253.195 134.019 C 252.532 136.481,252.578 219.765,253.243 221.987 C 254.263 225.390,254.189 225.370,266.931 225.629 C 274.190 225.776,278.698 226.032,279.600 226.346 C 283.209 227.604,294.368 226.196,297.100 224.138 C 300.204 221.801,299.980 225.753,299.984 173.251 C 299.987 131.731,300.174 133.237,294.657 130.286 C 292.527 129.147,257.530 128.691,255.577 129.776 M158.000 228.822 C 153.407 229.161,152.729 229.815,152.217 234.400 C 152.081 235.610,151.704 237.422,151.378 238.427 C 150.398 241.442,150.706 316.539,151.710 319.481 C 153.747 325.454,154.834 325.694,179.545 325.628 C 199.163 325.575,198.440 325.674,199.738 322.866 L 200.600 321.000 200.600 276.583 C 200.600 227.670,200.768 231.046,198.255 229.399 C 197.279 228.760,165.088 228.298,158.000 228.822 M203.659 230.002 C 201.893 231.769,201.955 229.892,202.083 277.400 L 202.200 321.000 203.062 322.866 C 204.377 325.710,203.548 325.603,224.074 325.572 C 245.361 325.540,242.852 325.976,247.625 321.472 L 251.363 317.944 251.494 313.072 C 251.819 301.006,251.592 232.332,251.225 231.646 C 251.009 231.242,249.880 230.482,248.716 229.956 L 246.600 229.000 225.744 228.887 L 204.889 228.773 203.659 230.002 " stroke="none" fill="none" fill-rule="evenodd"></path><path id="path1" d="M10.197 0.958 C 7.241 2.303,0.978 8.709,1.325 10.033 C 1.435 10.455,1.380 10.711,1.202 10.601 C 0.036 9.881,0.002 15.366,0.002 200.000 C 0.002 384.634,0.036 390.119,1.202 389.399 C 1.380 389.289,1.435 389.545,1.325 389.967 C 0.967 391.332,7.280 397.726,10.307 399.065 L 12.423 400.000 200.000 400.000 L 387.577 400.000 389.693 399.065 C 392.720 397.726,399.033 391.332,398.675 389.967 C 398.565 389.545,398.620 389.289,398.798 389.399 C 399.964 390.119,399.998 384.634,399.998 200.000 C 399.998 15.366,399.964 9.881,398.798 10.601 C 398.620 10.711,398.565 10.455,398.675 10.033 C 399.033 8.668,392.720 2.274,389.693 0.935 L 387.577 0.000 199.889 0.023 L 12.200 0.046 10.197 0.958 M212.542 74.558 C 223.231 75.657,226.836 78.991,227.672 88.551 C 228.220 94.828,227.870 121.947,227.225 123.153 C 225.841 125.739,225.352 125.788,199.892 125.915 C 174.460 126.042,174.284 126.027,172.649 123.531 C 171.830 122.281,171.287 95.091,171.938 87.921 C 172.838 78.006,176.106 75.221,187.400 74.746 C 191.140 74.589,194.740 74.271,195.400 74.039 C 196.904 73.511,204.632 73.745,212.542 74.558 M225.015 127.797 C 227.647 128.125,232.230 128.401,235.200 128.411 C 248.161 128.453,249.854 128.982,250.784 133.278 C 251.435 136.292,251.433 220.320,250.781 222.909 C 249.691 227.238,249.875 227.211,222.400 227.180 C 209.750 227.165,189.547 227.167,177.504 227.184 C 153.288 227.217,153.494 227.237,152.127 224.732 C 151.274 223.169,150.767 141.119,151.569 134.511 C 152.390 127.752,155.102 126.500,165.600 128.033 C 167.968 128.379,169.484 128.347,172.800 127.883 C 178.977 127.018,218.252 126.953,225.015 127.797 M143.929 129.140 C 150.391 129.677,150.052 126.815,149.912 179.600 L 149.800 222.200 148.844 224.316 C 147.646 226.966,147.171 227.213,143.760 226.954 C 142.242 226.839,134.250 226.704,126.000 226.656 C 109.389 226.557,108.979 226.502,106.365 224.009 C 103.932 221.687,104.004 223.089,104.005 178.600 C 104.006 127.542,103.703 129.884,110.400 129.185 C 113.858 128.824,139.707 128.789,143.929 129.140 M294.657 130.286 C 300.174 133.237,299.987 131.731,299.984 173.251 C 299.980 225.753,300.204 221.801,297.100 224.138 C 294.368 226.196,283.209 227.604,279.600 226.346 C 278.698 226.032,274.190 225.776,266.931 225.629 C 254.189 225.370,254.263 225.390,253.243 221.987 C 252.578 219.765,252.532 136.481,253.195 134.019 C 254.575 128.894,253.220 129.190,274.800 129.304 C 292.733 129.399,293.024 129.413,294.657 130.286 M198.255 229.399 C 200.768 231.046,200.600 227.670,200.600 276.583 L 200.600 321.000 199.738 322.866 C 198.440 325.674,199.163 325.575,179.545 325.628 C 154.834 325.694,153.747 325.454,151.710 319.481 C 150.706 316.539,150.398 241.442,151.378 238.427 C 151.704 237.422,152.081 235.610,152.217 234.400 C 152.729 229.815,153.407 229.161,158.000 228.822 C 165.088 228.298,197.279 228.760,198.255 229.399 M248.716 229.956 C 249.880 230.482,251.009 231.242,251.225 231.646 C 251.592 232.332,251.819 301.006,251.494 313.072 L 251.363 317.944 247.625 321.472 C 242.852 325.976,245.361 325.540,224.074 325.572 C 203.548 325.603,204.377 325.710,203.062 322.866 L 202.200 321.000 202.083 277.400 C 201.955 229.892,201.893 231.769,203.659 230.002 L 204.889 228.773 225.744 228.887 L 246.600 229.000 248.716 229.956 " stroke="none" fill="#000000" fill-rule="evenodd"></path></g></svg>